<svg width="96" height="96" viewBox="0 0 96 96" fill="none" xmlns="http://www.w3.org/2000/svg">
<g clip-path="url(#clip0_1_54)">
<path d="M68.5963 44.3801L63.1594 48L60.3772 46.1564L49.3149 38.7819L63.1594 29.5739L63.5095 29.3352L63.1594 29.1056L53.2332 22.5055L47.7954 18.8855L33.5924 28.3322L32.4313 29.1075V52.233C32.4253 56.7441 33.5384 61.1865 35.6712 65.1639C37.8041 69.1413 40.8904 72.5299 44.6547 75.0275L47.7954 77.1145L50.9276 75.0275C54.6187 72.5784 57.6592 69.2722 59.7883 65.3925C61.9173 61.5128 63.0712 57.1755 63.1511 52.7529C63.1594 52.5823 63.1594 52.4035 63.1594 52.233V48L78.1391 57.9657C77.9427 59.3963 77.6782 60.8076 77.3457 62.1996C74.8413 72.6805 68.4482 81.8242 59.4553 87.7872L47.7954 95.547L36.1363 87.7872C30.9505 84.3394 26.5803 79.8048 23.33 74.4993V74.491C19.2327 67.7868 17.0652 60.0857 17.0655 52.233V20.8988L19.7368 19.127L47.7954 0.453003L78.5234 20.8988V37.778L77.3669 38.5533L68.5963 44.3801Z" fill="url(#paint0_linear_1_54)"/>
</g>
<defs>
<linearGradient id="paint0_linear_1_54" x1="17.0682" y1="48" x2="78.5234" y2="48" gradientUnits="userSpaceOnUse">
<stop stop-color="#3972FF"/>
<stop offset="1" stop-color="#0D4FD1"/>
</linearGradient>
<clipPath id="clip0_1_54">
<rect width="96" height="96" fill="none"/>
</clipPath>
</defs>
</svg>
